{
  "accessors": [
    {
      "bufferView": 2,
      "componentType": 5126,
      "count": 29715,
      "max": [
        -127.43370056152344,
        -29.613487243652344,
        -208.18421936035156
      ],
      "min": [
        -211.58509826660156,
        -117.35258483886719,
        -329.3304138183594
      ],
      "type": "VEC3"
    },
    {
      "bufferView": 2,
      "byteOffset": 356580,
      "componentType": 5126,
      "count": 29715,
      "max": [
        1.0,
        1.0,
        1.0
      ],
      "min": [
        -1.0,
        -1.0,
        -1.0
      ],
      "type": "VEC3"
    },
    {
      "bufferView": 1,
      "componentType": 5126,
      "count": 29715,
      "max": [
        4.257500171661377,
        1.107800006866455
      ],
      "min": [
        -1.4759000539779663,
        -0.04560000076889992
      ],
      "type": "VEC2"
    },
    {
      "bufferView": 0,
      "componentType": 5125,
      "count": 49704,
      "type": "SCALAR"
    },
    {
      "bufferView": 2,
      "byteOffset": 713160,
      "componentType": 5126,
      "count": 46086,
      "max": [
        -38.097999572753906,
        80.8086166381836,
        -253.94261169433594
      ],
      "min": [
        -101.77980041503906,
        -52.53388595581055,
        -329.33050537109375
      ],
      "type": "VEC3"
    },
    {
      "bufferView": 2,
      "byteOffset": 1266192,
      "componentType": 5126,
      "count": 46086,
      "max": [
        1.0,
        1.0,
        1.0
      ],
      "min": [
        -1.0,
        -1.0,
        -1.0
      ],
      "type": "VEC3"
    },
    {
      "bufferView": 1,
      "byteOffset": 237720,
      "componentType": 5126,
      "count": 46086,
      "max": [
        30.907899856567383,
        7.238100051879883
      ],
      "min": [
        -4.294600009918213,
        -9.303500175476074
      ],
      "type": "VEC2"
    },
    {
      "bufferView": 0,
      "byteOffset": 198816,
      "componentType": 5125,
      "count": 75723,
      "type": "SCALAR"
    },
    {
      "bufferView": 2,
      "byteOffset": 1819224,
      "componentType": 5126,
      "count": 65533,
      "max": [
        1089.3778076171875,
        988.5819702148438,
        327.3800354003906
      ],
      "min": [
        -971.1746215820313,
        -991.3292846679688,
        -282.2953186035156
      ],
      "type": "VEC3"
    },
    {
      "bufferView": 2,
      "byteOffset": 2605620,
      "componentType": 5126,
      "count": 65533,
      "max": [
        1.0,
        0.9993425607681274,
        1.0
      ],
      "min": [
        -1.0,
        -0.9999306797981262,
        -1.0
      ],
      "type": "VEC3"
    },
    {
      "bufferView": 1,
      "byteOffset": 606408,
      "componentType": 5126,
      "count": 65533,
      "max": [
        0.9972000122070313,
        0.9916999936103821
      ],
      "min": [
        0.010900000110268593,
        0.01810000091791153
      ],
      "type": "VEC2"
    },
    {
      "bufferView": 0,
      "byteOffset": 501708,
      "componentType": 5125,
      "count": 76257,
      "type": "SCALAR"
    },
    {
      "bufferView": 2,
      "byteOffset": 3392016,
      "componentType": 5126,
      "count": 65534,
      "max": [
        1089.3145751953125,
        978.4049072265625,
        327.7497863769531
      ],
      "min": [
        -1089.3778076171875,
        -991.3292846679688,
        -281.044921875
      ],
      "type": "VEC3"
    },
    {
      "bufferView": 2,
      "byteOffset": 4178424,
      "componentType": 5126,
      "count": 65534,
      "max": [
        1.0,
        1.0,
        1.0
      ],
      "min": [
        -1.0,
        -0.999998152256012,
        -1.0
      ],
      "type": "VEC3"
    },
    {
      "bufferView": 1,
      "byteOffset": 1130672,
      "componentType": 5126,
      "count": 65534,
      "max": [
        0.9972000122070313,
        0.9916999936103821
      ],
      "min": [
        0.01730000041425228,
        0.010200000368058681
      ],
      "type": "VEC2"
    },
    {
      "bufferView": 0,
      "byteOffset": 806736,
      "componentType": 5125,
      "count": 79941,
      "type": "SCALAR"
    },
    {
      "bufferView": 2,
      "byteOffset": 4964832,
      "componentType": 5126,
      "count": 34701,
      "max": [
        734.8637084960938,
        991.3292846679688,
        329.3305358886719
      ],
      "min": [
        -1089.3778076171875,
        -945.372314453125,
        -301.684326171875
      ],
      "type": "VEC3"
    },
    {
      "bufferView": 2,
      "byteOffset": 5381244,
      "componentType": 5126,
      "count": 34701,
      "max": [
        1.0,
        1.0,
        1.0
      ],
      "min": [
        -0.9999814033508301,
        -0.9992972016334534,
        -1.0
      ],
      "type": "VEC3"
    },
    {
      "bufferView": 1,
      "byteOffset": 1654944,
      "componentType": 5126,
      "count": 34701,
      "max": [
        0.992900013923645,
        0.9829000234603882
      ],
      "min": [
        0.017400000244379044,
        0.023600000888109207
      ],
      "type": "VEC2"
    },
    {
      "bufferView": 0,
      "byteOffset": 1126500,
      "componentType": 5125,
      "count": 40389,
      "type": "SCALAR"
    },
    {
      "bufferView": 2,
      "byteOffset": 5797656,
      "componentType": 5126,
      "count": 26908,
      "max": [
        8.283699989318848,
        932.7866821289063,
        -80.00267791748047
      ],
      "min": [
        -734.86376953125,
        -945.372314453125,
        -301.684326171875
      ],
      "type": "VEC3"
    },
    {
      "bufferView": 2,
      "byteOffset": 6120552,
      "componentType": 5126,
      "count": 26908,
      "max": [
        0.9998852610588074,
        1.0,
        0.9999515414237976
      ],
      "min": [
        -0.9999268054962158,
        -0.9966058135032654,
        -0.9999039173126221
      ],
      "type": "VEC3"
    },
    {
      "bufferView": 1,
      "byteOffset": 1932552,
      "componentType": 5126,
      "count": 26908,
      "max": [
        0.992900013923645,
        0.9747999906539917
      ],
      "min": [
        0.010900000110268593,
        0.023600000888109207
      ],
      "type": "VEC2"
    },
    {
      "bufferView": 0,
      "byteOffset": 1288056,
      "componentType": 5125,
      "count": 31425,
      "type": "SCALAR"
    },
    {
      "bufferView": 2,
      "byteOffset": 6443448,
      "componentType": 5126,
      "count": 990,
      "max": [
        149.9250030517578,
        -426.4632873535156,
        -209.55413818359375
      ],
      "min": [
        -149.70779418945313,
        -427.80230712890625,
        -216.87193298339844
      ],
      "type": "VEC3"
    },
    {
      "bufferView": 2,
      "byteOffset": 6455328,
      "componentType": 5126,
      "count": 990,
      "max": [
        1.0,
        0.0,
        0.9945395588874817
      ],
      "min": [
        -1.0,
        -0.968929648399353,
        -0.9945361614227295
      ],
      "type": "VEC3"
    },
    {
      "bufferView": 1,
      "byteOffset": 2147816,
      "componentType": 5126,
      "count": 990,
      "max": [
        1.016700029373169,
        1.0
      ],
      "min": [
        0.0027000000700354576,
        0.0
      ],
      "type": "VEC2"
    },
    {
      "bufferView": 0,
      "byteOffset": 1413756,
      "componentType": 5125,
      "count": 1350,
      "type": "SCALAR"
    },
    {
      "bufferView": 2,
      "byteOffset": 6467208,
      "componentType": 5126,
      "count": 96,
      "max": [
        150.34249877929688,
        -426.6080017089844,
        -209.28623962402344
      ],
      "min": [
        -150.34249877929688,
        -430.48809814453125,
        -217.2321319580078
      ],
      "type": "VEC3"
    },
    {
      "bufferView": 2,
      "byteOffset": 6468360,
      "componentType": 5126,
      "count": 96,
      "max": [
        0.6985185742378235,
        0.7199717164039612,
        0.39665108919143677
      ],
      "min": [
        -0.6985188722610474,
        -0.7196661829948425,
        -0.39635559916496277
      ],
      "type": "VEC3"
    },
    {
      "bufferView": 1,
      "byteOffset": 2155736,
      "componentType": 5126,
      "count": 96,
      "max": [
        0.24549999833106995,
        0.0
      ],
      "min": [
        0.21529999375343323,
        0.0
      ],
      "type": "VEC2"
    },
    {
      "bufferView": 0,
      "byteOffset": 1419156,
      "componentType": 5125,
      "count": 96,
      "type": "SCALAR"
    },
    {
      "bufferView": 2,
      "byteOffset": 6469512,
      "componentType": 5126,
      "count": 21649,
      "max": [
        25.60580062866211,
        -866.1177978515625,
        -244.38746643066406
      ],
      "min": [
        -25.575300216674805,
        -908.5714111328125,
        -324.7720642089844
      ],
      "type": "VEC3"
    },
    {
      "bufferView": 2,
      "byteOffset": 6729300,
      "componentType": 5126,
      "count": 21649,
      "max": [
        1.0,
        1.0,
        1.0
      ],
      "min": [
        -1.0,
        -1.0,
        -1.0
      ],
      "type": "VEC3"
    },
    {
      "bufferView": 1,
      "byteOffset": 2156504,
      "componentType": 5126,
      "count": 21649,
      "max": [
        3.9753000736236572,
        7.42609977722168
      ],
      "min": [
        -7.6417999267578125,
        -11.257800102233887
      ],
      "type": "VEC2"
    },
    {
      "bufferView": 0,
      "byteOffset": 1419540,
      "componentType": 5125,
      "count": 35931,
      "type": "SCALAR"
    },
    {
      "bufferView": 2,
      "byteOffset": 6989088,
      "componentType": 5126,
      "count": 46082,
      "max": [
        101.36219787597656,
        80.8086166381836,
        -253.94261169433594
      ],
      "min": [
        37.680301666259766,
        -52.53388595581055,
        -329.33050537109375
      ],
      "type": "VEC3"
    },
    {
      "bufferView": 2,
      "byteOffset": 7542072,
      "componentType": 5126,
      "count": 46082,
      "max": [
        1.0,
        1.0,
        1.0
      ],
      "min": [
        -1.0,
        -1.0,
        -1.0
      ],
      "type": "VEC3"
    },
    {
      "bufferView": 1,
      "byteOffset": 2329696,
      "componentType": 5126,
      "count": 46082,
      "max": [
        30.907899856567383,
        7.238100051879883
      ],
      "min": [
        -4.294600009918213,
        -9.303500175476074
      ],
      "type": "VEC2"
    },
    {
      "bufferView": 0,
      "byteOffset": 1563264,
      "componentType": 5125,
      "count": 75744,
      "type": "SCALAR"
    },
    {
      "bufferView": 2,
      "byteOffset": 8095056,
      "componentType": 5126,
      "count": 29691,
      "max": [
        211.16749572753906,
        -29.613487243652344,
        -208.18421936035156
      ],
      "min": [
        127.01609802246094,
        -117.35258483886719,
        -329.3304138183594
      ],
      "type": "VEC3"
    },
    {
      "bufferView": 2,
      "byteOffset": 8451348,
      "componentType": 5126,
      "count": 29691,
      "max": [
        1.0,
        1.0,
        1.0
      ],
      "min": [
        -1.0,
        -1.0,
        -1.0
      ],
      "type": "VEC3"
    },
    {
      "bufferView": 1,
      "byteOffset": 2698352,
      "componentType": 5126,
      "count": 29691,
      "max": [
        4.257500171661377,
        1.107800006866455
      ],
      "min": [
        -1.4759000539779663,
        -0.04560000076889992
      ],
      "type": "VEC2"
    },
    {
      "bufferView": 0,
      "byteOffset": 1866240,
      "componentType": 5125,
      "count": 49686,
      "type": "SCALAR"
    }
  ],
  "asset": {
    "extras": {
      "author": "Nyilonelycompany (https://sketchfab.com/Nyilonelycompany)",
      "license": "CC-BY-4.0 (http://creativecommons.org/licenses/by/4.0/)",
      "source": "https://sketchfab.com/3d-models/airplane-n061213-c1a7a7e1da204476879abc0909a621f2",
      "title": "Airplane N061213"
    },
    "generator": "Sketchfab-12.68.0",
    "version": "2.0"
  },
  "bufferViews": [
    {
      "buffer": 0,
      "byteLength": 2064984,
      "name": "floatBufferViews",
      "target": 34963
    },
    {
      "buffer": 0,
      "byteLength": 2935880,
      "byteOffset": 2064984,
      "byteStride": 8,
      "name": "floatBufferViews",
      "target": 34962
    },
    {
      "buffer": 0,
      "byteLength": 8807640,
      "byteOffset": 5000864,
      "byteStride": 12,
      "name": "floatBufferViews",
      "target": 34962
    }
  ],
  "buffers": [
    {
      "byteLength": 13808504,
      "uri": "scene.bin"
    }
  ],
  "images": [
    {
      "uri": "textures/Material_baseColor.jpeg"
    }
  ],
  "materials": [
    {
      "doubleSided": true,
      "name": "Material",
      "pbrMetallicRoughness": {
        "baseColorTexture": {
          "index": 0
        },
        "metallicFactor": 0.0,
        "roughnessFactor": 0.6
      }
    }
  ],
  "meshes": [
    {
      "name": "Object_0",
      "primitives": [
        {
          "attributes": {
            "NORMAL": 1,
            "POSITION": 0,
            "TEXCOORD_0": 2
          },
          "indices": 3,
          "material": 0,
          "mode": 4
        }
      ]
    },
    {
      "name": "Object_1",
      "primitives": [
        {
          "attributes": {
            "NORMAL": 5,
            "POSITION": 4,
            "TEXCOORD_0": 6
          },
          "indices": 7,
          "material": 0,
          "mode": 4
        }
      ]
    },
    {
      "name": "Object_2",
      "primitives": [
        {
          "attributes": {
            "NORMAL": 9,
            "POSITION": 8,
            "TEXCOORD_0": 10
          },
          "indices": 11,
          "material": 0,
          "mode": 4
        }
      ]
    },
    {
      "name": "Object_3",
      "primitives": [
        {
          "attributes": {
            "NORMAL": 13,
            "POSITION": 12,
            "TEXCOORD_0": 14
          },
          "indices": 15,
          "material": 0,
          "mode": 4
        }
      ]
    },
    {
      "name": "Object_4",
      "primitives": [
        {
          "attributes": {
            "NORMAL": 17,
            "POSITION": 16,
            "TEXCOORD_0": 18
          },
          "indices": 19,
          "material": 0,
          "mode": 4
        }
      ]
    },
    {
      "name": "Object_5",
      "primitives": [
        {
          "attributes": {
            "NORMAL": 21,
            "POSITION": 20,
            "TEXCOORD_0": 22
          },
          "indices": 23,
          "material": 0,
          "mode": 4
        }
      ]
    },
    {
      "name": "Object_6",
      "primitives": [
        {
          "attributes": {
            "NORMAL": 25,
            "POSITION": 24,
            "TEXCOORD_0": 26
          },
          "indices": 27,
          "material": 0,
          "mode": 4
        }
      ]
    },
    {
      "name": "Object_7",
      "primitives": [
        {
          "attributes": {
            "NORMAL": 29,
            "POSITION": 28,
            "TEXCOORD_0": 30
          },
          "indices": 31,
          "material": 0,
          "mode": 4
        }
      ]
    },
    {
      "name": "Object_8",
      "primitives": [
        {
          "attributes": {
            "NORMAL": 33,
            "POSITION": 32,
            "TEXCOORD_0": 34
          },
          "indices": 35,
          "material": 0,
          "mode": 4
        }
      ]
    },
    {
      "name": "Object_9",
      "primitives": [
        {
          "attributes": {
            "NORMAL": 37,
            "POSITION": 36,
            "TEXCOORD_0": 38
          },
          "indices": 39,
          "material": 0,
          "mode": 4
        }
      ]
    },
    {
      "name": "Object_10",
      "primitives": [
        {
          "attributes": {
            "NORMAL": 41,
            "POSITION": 40,
            "TEXCOORD_0": 42
          },
          "indices": 43,
          "material": 0,
          "mode": 4
        }
      ]
    }
  ],
  "nodes": [
    {
      "children": [
        1
      ],
      "matrix": [
        1.0,
        0.0,
        0.0,
        0.0,
        0.0,
        2.220446049250313e-16,
        -1.0,
        0.0,
        0.0,
        1.0,
        2.220446049250313e-16,
        0.0,
        0.0,
        0.0,
        0.0,
        1.0
      ],
      "name": "Sketchfab_model"
    },
    {
      "children": [
        2,
        5,
        8,
        15,
        18,
        21,
        24,
        27
      ],
      "name": "Airplane N061213.3DS"
    },
    {
      "children": [
        3
      ],
      "matrix": [
        1.0,
        0.0,
        0.0,
        0.0,
        0.0,
        0.0,
        1.0,
        0.0,
        0.0,
        -1.0,
        0.0,
        0.0,
        0.0,
        1.4492385162157007e-05,
        -331.547119140625,
        1.0
      ],
      "name": "Archmod737"
    },
    {
      "children": [
        4
      ],
      "matrix": [
        1.0,
        0.0,
        0.0,
        0.0,
        0.0,
        -4.371138828673784e-08,
        -0.999999999999998,
        0.0,
        0.0,
        0.999999999999998,
        -4.371138828673784e-08,
        0.0,
        -0.0,
        331.54711914062494,
        3.0205178636055763e-13,
        1.0
      ],
      "name": "3DSMeshMatrix"
    },
    {
      "mesh": 0,
      "name": "Object_4"
    },
    {
      "children": [
        6
      ],
      "matrix": [
        1.0,
        0.0,
        0.0,
        0.0,
        0.0,
        0.0,
        1.0,
        0.0,
        0.0,
        -1.0,
        0.0,
        0.0,
        0.0,
        1.4492385162157007e-05,
        -331.547119140625,
        1.0
      ],
      "name": "Archmod736"
    },
    {
      "children": [
        7
      ],
      "matrix": [
        1.0,
        0.0,
        0.0,
        0.0,
        0.0,
        -4.371138828673784e-08,
        -0.999999999999998,
        0.0,
        0.0,
        0.999999999999998,
        -4.371138828673784e-08,
        0.0,
        -0.0,
        331.54711914062494,
        3.0205178636055763e-13,
        1.0
      ],
      "name": "3DSMeshMatrix"
    },
    {
      "mesh": 1,
      "name": "Object_7"
    },
    {
      "children": [
        9,
        13
      ],
      "matrix": [
        1.0,
        0.0,
        0.0,
        0.0,
        0.0,
        0.0,
        1.0,
        0.0,
        0.0,
        -1.0,
        0.0,
        0.0,
        0.0,
        1.4492385162157007e-05,
        -331.547119140625,
        1.0
      ],
      "name": "Archmod735"
    },
    {
      "children": [
        10,
        11,
        12
      ],
      "matrix": [
        1.0,
        0.0,
        0.0,
        0.0,
        0.0,
        -4.371138828673784e-08,
        -0.999999999999998,
        0.0,
        0.0,
        0.999999999999998,
        -4.371138828673784e-08,
        0.0,
        -0.0,
        331.54711914062494,
        3.0205178636055763e-13,
        1.0
      ],
      "name": "3DSMeshMatrix"
    },
    {
      "mesh": 2,
      "name": "Object_10"
    },
    {
      "mesh": 3,
      "name": "Object_11"
    },
    {
      "mesh": 4,
      "name": "Object_12"
    },
    {
      "children": [
        14
      ],
      "matrix": [
        1.0,
        0.0,
        0.0,
        0.0,
        0.0,
        -4.371138828673784e-08,
        -0.999999999999998,
        0.0,
        0.0,
        0.999999999999998,
        -4.371138828673784e-08,
        0.0,
        -0.0,
        331.54711914062494,
        3.0205178636055763e-13,
        1.0
      ],
      "name": "3DSMeshMatrix"
    },
    {
      "mesh": 5,
      "name": "Object_14"
    },
    {
      "children": [
        16
      ],
      "matrix": [
        1.0,
        0.0,
        0.0,
        0.0,
        0.0,
        0.0,
        1.0,
        0.0,
        0.0,
        -1.0,
        0.0,
        0.0,
        0.0,
        1.4492385162157007e-05,
        -331.547119140625,
        1.0
      ],
      "name": "Archmod734"
    },
    {
      "children": [
        17
      ],
      "matrix": [
        1.0,
        0.0,
        0.0,
        0.0,
        0.0,
        -4.371138828673784e-08,
        -0.999999999999998,
        0.0,
        0.0,
        0.999999999999998,
        -4.371138828673784e-08,
        0.0,
        -0.0,
        331.54711914062494,
        3.0205178636055763e-13,
        1.0
      ],
      "name": "3DSMeshMatrix"
    },
    {
      "mesh": 6,
      "name": "Object_17"
    },
    {
      "children": [
        19
      ],
      "matrix": [
        1.0,
        0.0,
        0.0,
        0.0,
        0.0,
        0.0,
        1.0,
        0.0,
        0.0,
        -1.0,
        0.0,
        0.0,
        0.0,
        1.4492385162157007e-05,
        -331.547119140625,
        1.0
      ],
      "name": "Archmod733"
    },
    {
      "children": [
        20
      ],
      "matrix": [
        1.0,
        0.0,
        0.0,
        0.0,
        0.0,
        -4.371138828673784e-08,
        -0.999999999999998,
        0.0,
        0.0,
        0.999999999999998,
        -4.371138828673784e-08,
        0.0,
        -0.0,
        331.54711914062494,
        3.0205178636055763e-13,
        1.0
      ],
      "name": "3DSMeshMatrix"
    },
    {
      "mesh": 7,
      "name": "Object_20"
    },
    {
      "children": [
        22
      ],
      "matrix": [
        1.0,
        0.0,
        0.0,
        0.0,
        0.0,
        0.0,
        1.0,
        0.0,
        0.0,
        -1.0,
        0.0,
        0.0,
        0.0,
        1.4492385162157007e-05,
        -331.547119140625,
        1.0
      ],
      "name": "Archmod732"
    },
    {
      "children": [
        23
      ],
      "matrix": [
        1.0,
        0.0,
        0.0,
        0.0,
        0.0,
        -4.371138828673784e-08,
        -0.999999999999998,
        0.0,
        0.0,
        0.999999999999998,
        -4.371138828673784e-08,
        0.0,
        -0.0,
        331.54711914062494,
        3.0205178636055763e-13,
        1.0
      ],
      "name": "3DSMeshMatrix"
    },
    {
      "mesh": 8,
      "name": "Object_23"
    },
    {
      "children": [
        25
      ],
      "matrix": [
        1.0,
        0.0,
        0.0,
        0.0,
        0.0,
        0.0,
        1.0,
        0.0,
        0.0,
        -1.0,
        0.0,
        0.0,
        0.0,
        1.4492385162157007e-05,
        -331.547119140625,
        1.0
      ],
      "name": "Archmod731"
    },
    {
      "children": [
        26
      ],
      "matrix": [
        1.0,
        0.0,
        0.0,
        0.0,
        0.0,
        -4.371138828673784e-08,
        -0.999999999999998,
        0.0,
        0.0,
        0.999999999999998,
        -4.371138828673784e-08,
        0.0,
        -0.0,
        331.54711914062494,
        3.0205178636055763e-13,
        1.0
      ],
      "name": "3DSMeshMatrix"
    },
    {
      "mesh": 9,
      "name": "Object_26"
    },
    {
      "children": [
        28
      ],
      "matrix": [
        1.0,
        0.0,
        0.0,
        0.0,
        0.0,
        0.0,
        1.0,
        0.0,
        0.0,
        -1.0,
        0.0,
        0.0,
        0.0,
        1.4492385162157007e-05,
        -331.547119140625,
        1.0
      ],
      "name": "Archmod73_"
    },
    {
      "children": [
        29
      ],
      "matrix": [
        1.0,
        0.0,
        0.0,
        0.0,
        0.0,
        -4.371138828673784e-08,
        -0.999999999999998,
        0.0,
        0.0,
        0.999999999999998,
        -4.371138828673784e-08,
        0.0,
        -0.0,
        331.54711914062494,
        3.0205178636055763e-13,
        1.0
      ],
      "name": "3DSMeshMatrix"
    },
    {
      "mesh": 10,
      "name": "Object_29"
    }
  ],
  "samplers": [
    {
      "magFilter": 9729,
      "minFilter": 9987,
      "wrapS": 10497,
      "wrapT": 10497
    }
  ],
  "scene": 0,
  "scenes": [
    {
      "name": "Sketchfab_Scene",
      "nodes": [
        0
      ]
    }
  ],
  "textures": [
    {
      "sampler": 0,
      "source": 0
    }
  ]
}
